<?xml version="1.0" encoding="UTF-8" standalone="no"?>
<svg width="72px" height="40px" viewBox="0 0 72 40" version="1.1" xmlns="http://www.w3.org/2000/svg" xmlns:xlink="http://www.w3.org/1999/xlink">
    <!-- Generator: Sketch 39.1 (31720) - http://www.bohemiancoding.com/sketch -->
    <title>Slice 1</title>
    <desc>Created with Sketch.</desc>
    <defs>
        <rect id="path-1" x="0" y="0" width="72" height="40"></rect>
        <mask id="mask-2" maskContentUnits="userSpaceOnUse" maskUnits="objectBoundingBox" x="0" y="0" width="72" height="40" fill="white">
            <use xlink:href="#path-1"></use>
        </mask>
    </defs>
    <g id="Page-1" stroke="none" stroke-width="1" fill="none" fill-rule="evenodd">
        <g id="Group">
            <path d="M24,14 L48,14 C49.104,14 50,13.104 50,12 C50,10.896 49.104,10 48,10 L24,10 C22.896,10 22,10.896 22,12 C22,13.104 22.896,14 24,14 L24,14 Z M48,18 L24,18 C22.896,18 22,18.896 22,20 C22,21.104 22.896,22 24,22 L48,22 C49.104,22 50,21.104 50,20 C50,18.896 49.104,18 48,18 L48,18 Z M48,26 L24,26 C22.896,26 22,26.896 22,28 C22,29.104 22.896,30 24,30 L48,30 C49.104,30 50,29.104 50,28 C50,26.896 49.104,26 48,26 L48,26 Z" id="Shape" fill="#000000"></path>
            <use id="Rectangle" stroke-opacity="0" stroke="#979797" mask="url(#mask-2)" stroke-width="2" xlink:href="#path-1"></use>
        </g>
    </g>
</svg>